<?xml version="1.0" encoding="UTF-8"?>
<svg width="152" height="152" viewBox="0 0 152 152" xmlns="http://www.w3.org/2000/svg">
  <!-- Background gradient -->
  <defs>
    <linearGradient id="bgGradient" x1="0%" y1="0%" x2="100%" y2="100%">
      <stop offset="0%" style="stop-color:#2f3192;stop-opacity:1" />
      <stop offset="100%" style="stop-color:#4050b5;stop-opacity:1" />
    </linearGradient>
  </defs>
  
  <!-- Background -->
  <rect width="152" height="152" fill="url(#bgGradient)"/>
  
  <!-- White circle for logo background -->
  <circle cx="76" cy="76" r="53.199999999999996" fill="white"/>
  
  <!-- D Letter -->
  <text x="76" y="76" 
        font-family="Arial, sans-serif" 
        font-size="60.800000000000004" 
        font-weight="bold" 
        fill="#EF476F" 
        text-anchor="middle" 
        dominant-baseline="central">D</text>
  
  
  <!-- Decorative stars -->
  <g fill="#FFD700">
    <path d="M22.8,18.24 l1.52,4.56 l4.56,0 l-3.8000000000000003,3.04 l2.28,3.8000000000000003 l-2.28,-3.8000000000000003 l3.8000000000000003,-3.04 l-4.56,0 l-1.52,-4.56 z"/>
    <path d="M129.2,18.24 l1.52,4.56 l4.56,0 l-3.8000000000000003,3.04 l2.28,3.8000000000000003 l-2.28,-3.8000000000000003 l3.8000000000000003,-3.04 l-4.56,0 l-1.52,-4.56 z"/>
    <path d="M22.8,124.63999999999999 l1.52,4.56 l4.56,0 l-3.8000000000000003,3.04 l2.28,3.8000000000000003 l-2.28,-3.8000000000000003 l3.8000000000000003,-3.04 l-4.56,0 l-1.52,-4.56 z"/>
    <path d="M129.2,124.63999999999999 l1.52,4.56 l4.56,0 l-3.8000000000000003,3.04 l2.28,3.8000000000000003 l-2.28,-3.8000000000000003 l3.8000000000000003,-3.04 l-4.56,0 l-1.52,-4.56 z"/>
  </g>
  
</svg>